<?xml version="1.0" encoding="utf-8"?>
<!-- Generator: Adobe Illustrator 26.0.1, SVG Export Plug-In . SVG Version: 6.00 Build 0)  -->
<svg version="1.1" id="レイヤー_1" xmlns="http://www.w3.org/2000/svg" xmlns:xlink="http://www.w3.org/1999/xlink" x="0px"
	 y="0px" viewBox="0 0 500 25" style="enable-background:new 0 0 500 25;" xml:space="preserve">
<style type="text/css">
	.st0{fill:#2B292A;}
	.st1{fill:none;stroke:#2B292A;stroke-width:0.551;stroke-miterlimit:10;}
	.st2{fill:none;stroke:#21A4DD;stroke-width:0.25;}
</style>
<g>
	<path class="st0" d="M11.8,14v5c0,0.3,0,0.6,0.2,0.7c0.1,0.1,0.3,0.3,0.6,0.3v0.4H9V20c0.3-0.1,0.5-0.2,0.6-0.3
		c0.1-0.1,0.2-0.4,0.2-0.7V5c0-0.3,0-0.6-0.2-0.7C9.6,4.2,9.4,4.1,9,4V3.6h3.5V4c-0.3,0.1-0.5,0.2-0.6,0.4c-0.1,0.1-0.1,0.3-0.1,0.7
		v7L20.9,5c0.3-0.2,0.5-0.4,0.5-0.6s-0.2-0.3-0.5-0.3V3.6h4.5V4c-0.5,0-1,0.2-1.5,0.6L17,10l7.6,9.6c0.2,0.2,0.4,0.4,0.5,0.5
		c0.2,0.1,0.4,0.1,0.7,0.1v0.4h-4.1v-0.4c0.4-0.1,0.5-0.2,0.5-0.4c0-0.1-0.2-0.4-0.6-0.9l-6.1-7.8L11.8,14z"/>
	<path class="st1" d="M11.8,14v5c0,0.3,0,0.6,0.2,0.7c0.1,0.1,0.3,0.3,0.6,0.3v0.4H9V20c0.3-0.1,0.5-0.2,0.6-0.3
		c0.1-0.1,0.2-0.4,0.2-0.7V5c0-0.3,0-0.6-0.2-0.7C9.6,4.2,9.4,4.1,9,4V3.6h3.5V4c-0.3,0.1-0.5,0.2-0.6,0.4c-0.1,0.1-0.1,0.3-0.1,0.7
		v7L20.9,5c0.3-0.2,0.5-0.4,0.5-0.6s-0.2-0.3-0.5-0.3V3.6h4.5V4c-0.5,0-1,0.2-1.5,0.6L17,10l7.6,9.6c0.2,0.2,0.4,0.4,0.5,0.5
		c0.2,0.1,0.4,0.1,0.7,0.1v0.4h-4.1v-0.4c0.4-0.1,0.5-0.2,0.5-0.4c0-0.1-0.2-0.4-0.6-0.9l-6.1-7.8L11.8,14z"/>
	<path class="st0" d="M41.8,14.2L38,5.8l-3.9,8.4H41.8z M42.5,15.8h-9L32,19c-0.1,0.3-0.2,0.5-0.2,0.6c0,0.2,0.2,0.4,0.7,0.5v0.4
		h-3.8v-0.4c0.3-0.1,0.6-0.2,0.8-0.4c0.2-0.2,0.4-0.6,0.7-1.2l6.2-13.4c0.1-0.3,0.2-0.5,0.2-0.7S36.4,4,36,3.9V3.6h4.1V4
		c-0.4,0.1-0.6,0.3-0.6,0.5c0,0.1,0.1,0.3,0.2,0.6L45.6,18c0.4,1,0.7,1.5,0.9,1.7s0.5,0.3,0.9,0.4v0.4h-4v-0.4
		c0.5-0.1,0.7-0.2,0.7-0.5c0-0.1-0.1-0.4-0.3-0.8L42.5,15.8z"/>
	<path class="st1" d="M41.8,14.2L38,5.8l-3.9,8.4H41.8z M42.5,15.8h-9L32,19c-0.1,0.3-0.2,0.5-0.2,0.6c0,0.2,0.2,0.4,0.7,0.5v0.4
		h-3.8v-0.4c0.3-0.1,0.6-0.2,0.8-0.4c0.2-0.2,0.4-0.6,0.7-1.2l6.2-13.4c0.1-0.3,0.2-0.5,0.2-0.7S36.4,4,36,3.9V3.6h4.1V4
		c-0.4,0.1-0.6,0.3-0.6,0.5c0,0.1,0.1,0.3,0.2,0.6L45.6,18c0.4,1,0.7,1.5,0.9,1.7s0.5,0.3,0.9,0.4v0.4h-4v-0.4
		c0.5-0.1,0.7-0.2,0.7-0.5c0-0.1-0.1-0.4-0.3-0.8L42.5,15.8z"/>
	<path class="st0" d="M61.4,20.5L54.3,6.3v12.8c0,0.3,0,0.6,0.2,0.7c0.1,0.1,0.3,0.3,0.6,0.3v0.4h-3.3v-0.4c0.3-0.1,0.5-0.2,0.6-0.3
		s0.2-0.4,0.2-0.7v-14c0-0.3,0-0.6-0.2-0.7C52.2,4.2,52,4.1,51.7,4V3.6h4.4V4c-0.4,0.1-0.6,0.3-0.6,0.5c0,0.1,0.1,0.4,0.4,0.9
		l5.6,11.1l5.7-11.2c0.2-0.4,0.3-0.7,0.3-0.8c0-0.2-0.2-0.4-0.6-0.5V3.6h4.4V4c-0.3,0.1-0.5,0.2-0.7,0.4s-0.2,0.4-0.2,0.7v14
		c0,0.3,0,0.6,0.2,0.7c0.1,0.1,0.3,0.3,0.6,0.3v0.4h-3.5v-0.4c0.3-0.1,0.5-0.2,0.6-0.3s0.2-0.4,0.2-0.7V6.3L61.4,20.5z"/>
	<path class="st1" d="M61.4,20.5L54.3,6.3v12.8c0,0.3,0,0.6,0.2,0.7c0.1,0.1,0.3,0.3,0.6,0.3v0.4h-3.3v-0.4c0.3-0.1,0.5-0.2,0.6-0.3
		s0.2-0.4,0.2-0.7v-14c0-0.3,0-0.6-0.2-0.7C52.2,4.2,52,4.1,51.7,4V3.6h4.4V4c-0.4,0.1-0.6,0.3-0.6,0.5c0,0.1,0.1,0.4,0.4,0.9
		l5.6,11.1l5.7-11.2c0.2-0.4,0.3-0.7,0.3-0.8c0-0.2-0.2-0.4-0.6-0.5V3.6h4.4V4c-0.3,0.1-0.5,0.2-0.7,0.4s-0.2,0.4-0.2,0.7v14
		c0,0.3,0,0.6,0.2,0.7c0.1,0.1,0.3,0.3,0.6,0.3v0.4h-3.5v-0.4c0.3-0.1,0.5-0.2,0.6-0.3s0.2-0.4,0.2-0.7V6.3L61.4,20.5z"/>
	<path class="st0" d="M78.3,19.1v-14c0-0.3-0.1-0.6-0.2-0.7C78,4.2,77.8,4.1,77.5,4V3.6H81V4c-0.3,0.1-0.5,0.2-0.6,0.3
		c-0.1,0.1-0.2,0.4-0.2,0.7v14c0,0.4,0.1,0.6,0.2,0.7c0.1,0.1,0.3,0.2,0.6,0.3v0.4h-3.5V20c0.3-0.1,0.5-0.2,0.6-0.3
		C78.3,19.7,78.3,19.4,78.3,19.1"/>
	<path class="st1" d="M78.3,19.1v-14c0-0.3-0.1-0.6-0.2-0.7C78,4.2,77.8,4.1,77.5,4V3.6H81V4c-0.3,0.1-0.5,0.2-0.6,0.3
		c-0.1,0.1-0.2,0.4-0.2,0.7v14c0,0.4,0.1,0.6,0.2,0.7c0.1,0.1,0.3,0.2,0.6,0.3v0.4h-3.5V20c0.3-0.1,0.5-0.2,0.6-0.3
		C78.3,19.7,78.3,19.4,78.3,19.1z"/>
	<path class="st0" d="M114,5.1l-1.8,3.1L111.9,8c0.1-0.2,0.1-0.4,0.1-0.6c0-0.3-0.5-0.8-1.6-1.3c-1.4-0.7-3-1.1-4.8-1.1
		c-2.3,0-4.2,0.6-5.6,1.9c-1.5,1.3-2.2,3-2.2,5.1s0.8,3.8,2.3,5.1s3.3,2,5.4,2s4-0.6,5.6-1.8c0.7-0.5,1.1-0.9,1.1-1.2
		c0-0.1-0.1-0.3-0.2-0.6l0.3-0.2l2.2,2.7l-0.3,0.2c-0.2-0.2-0.4-0.3-0.6-0.3c-0.1,0-0.2,0.1-0.5,0.3c-0.8,0.6-1.4,1-1.9,1.3
		s-1.1,0.5-1.6,0.7c-1.2,0.4-2.6,0.6-4.1,0.6c-2.8,0-5.2-0.8-6.9-2.4c-1.9-1.7-2.8-3.8-2.8-6.4c0-2,0.6-3.8,1.8-5.3
		c1.8-2.3,4.6-3.5,8.2-3.5c2.4,0,4.8,0.6,7,1.9c0.2,0.1,0.2,0.1,0.3,0.1c0.1,0,0.3-0.2,0.6-0.5L114,5.1z"/>
	<path class="st0" d="M134.1,12.6h-11.6V19c0,0.4,0.1,0.6,0.2,0.7c0.1,0.1,0.3,0.2,0.6,0.3v0.4h-3.5V20c0.3-0.1,0.5-0.2,0.6-0.3
		c0.1-0.1,0.2-0.4,0.2-0.7V5c0-0.3-0.1-0.6-0.2-0.7s-0.3-0.2-0.6-0.3V3.6h3.5V4c-0.3,0.1-0.5,0.2-0.6,0.3c-0.1,0.1-0.2,0.4-0.2,0.7
		v5.9h11.6V5.1c0-0.3-0.1-0.6-0.2-0.7c-0.1-0.1-0.3-0.2-0.6-0.3V3.6h3.5V4c-0.3,0.1-0.5,0.2-0.6,0.3C136.1,4.4,136,4.7,136,5v14
		c0,0.3,0.1,0.6,0.2,0.7c0.1,0.1,0.3,0.3,0.6,0.3v0.4h-3.5V20c0.3-0.1,0.5-0.2,0.6-0.3c0.1-0.1,0.2-0.4,0.2-0.7V12.6z"/>
	<path class="st0" d="M154.3,14.2l-3.8-8.4l-3.8,8.4H154.3z M155.1,15.8h-9l-1.5,3.2c-0.1,0.3-0.2,0.5-0.2,0.6
		c0,0.2,0.2,0.4,0.7,0.5v0.4h-3.8v-0.4c0.3-0.1,0.6-0.2,0.8-0.4s0.4-0.6,0.7-1.2L149,5.1c0.1-0.3,0.2-0.5,0.2-0.7S149,4,148.6,3.9
		V3.6h4.1V4c-0.4,0.1-0.6,0.3-0.6,0.5c0,0.1,0.1,0.3,0.2,0.6l5.9,12.9c0.4,1,0.7,1.5,0.9,1.7s0.4,0.3,0.9,0.4v0.4h-4v-0.4
		c0.5-0.1,0.7-0.2,0.7-0.5c0-0.1-0.1-0.4-0.3-0.8L155.1,15.8z"/>
	<path class="st0" d="M167,11.3h6.9c0.9,0,1.6,0,2.1-0.1s0.9-0.2,1.3-0.4c0.9-0.5,1.3-1.3,1.3-2.5s-0.4-2-1.3-2.5
		c-0.4-0.2-0.8-0.4-1.3-0.4c-0.5-0.1-1.2-0.1-2.2-0.1H167V11.3L167,11.3z M167,12.9V19c0,0.3,0.1,0.6,0.2,0.7
		c0.1,0.1,0.3,0.3,0.6,0.3v0.4h-3.5V20c0.3-0.1,0.5-0.2,0.6-0.3s0.2-0.4,0.2-0.7V5c0-0.3-0.1-0.6-0.2-0.7c-0.1-0.1-0.3-0.2-0.6-0.3
		V3.6h9.3c1.3,0,2.3,0.1,3,0.2s1.4,0.4,1.9,0.7c0.6,0.3,1,0.8,1.4,1.4c0.4,0.7,0.6,1.5,0.6,2.3c0,1.3-0.4,2.3-1.3,3.1
		c-0.9,0.8-2,1.3-3.5,1.4l4.3,6.7c0.3,0.4,0.6,0.6,1.1,0.6v0.4h-3.9V20c0.4-0.1,0.6-0.2,0.6-0.3s-0.1-0.4-0.4-0.8l-3.8-6.1L167,12.9
		L167,12.9z"/>
	<path class="st0" d="M187.1,19.1v-14c0-0.3-0.1-0.6-0.2-0.7c-0.1-0.1-0.3-0.2-0.6-0.3V3.6h3.5V4c-0.3,0.1-0.5,0.2-0.6,0.3
		C189.1,4.4,189,4.7,189,5v14c0,0.4,0.1,0.6,0.1,0.7c0.1,0.1,0.3,0.2,0.6,0.3v0.4h-3.5V20c0.3-0.1,0.5-0.2,0.6-0.3
		C187.1,19.7,187.1,19.4,187.1,19.1"/>
	<path class="st0" d="M212,4.7l-1.8,3.2l-0.4-0.2c0.1-0.4,0.2-0.6,0.2-0.7c0-0.2-0.3-0.5-0.9-0.8c-1.7-0.8-3.4-1.2-5.3-1.2
		c-1.5,0-2.9,0.3-4,0.8c-0.5,0.3-1,0.6-1.3,1.1c-0.3,0.4-0.5,0.9-0.5,1.4c0,0.4,0.1,0.8,0.4,1.2s0.6,0.6,1,0.8s1,0.4,1.6,0.4
		s1.6,0.1,3,0.2c1.9,0.1,3.3,0.1,4.1,0.3s1.5,0.3,2,0.6c1.4,0.8,2.1,2,2.1,3.6c0,1.5-0.6,2.8-1.9,3.8c-1.4,1.1-3.4,1.6-5.8,1.6
		c-1.4,0-2.7-0.1-3.7-0.4c-1.1-0.3-2.3-0.8-3.8-1.6c-0.4-0.2-0.7-0.3-0.7-0.3c-0.1,0-0.3,0.1-0.6,0.5l-0.3-0.2l1.9-3.1l0.4,0.2
		c-0.2,0.3-0.2,0.5-0.2,0.7c0,0.3,0.5,0.7,1.6,1.2c0.9,0.5,1.9,0.9,2.7,1.1s1.8,0.3,2.9,0.3c2.1,0,3.7-0.5,4.8-1.4
		c0.7-0.6,1.1-1.3,1.1-2.2c0-1.1-0.6-1.9-1.9-2.3c-0.4-0.1-0.8-0.2-1.2-0.3c-0.4,0-1.6-0.1-3.6-0.2c-1.4-0.1-2.5-0.2-3.3-0.3
		s-1.5-0.4-2.1-0.8c-0.6-0.3-1.1-0.8-1.4-1.4s-0.5-1.2-0.5-1.9c0-1.2,0.4-2.2,1.3-3.1c0.7-0.6,1.6-1.1,2.7-1.5
		c1.2-0.4,2.4-0.5,3.8-0.5c1.1,0,2.2,0.1,3.1,0.3c1,0.2,2.1,0.6,3.3,1.2c0.3,0.1,0.4,0.2,0.5,0.2s0.4-0.2,0.6-0.5L212,4.7z"/>
	<path class="st0" d="M227.3,20.5l-7.1-14.2v12.8c0,0.3,0.1,0.6,0.2,0.7c0.1,0.1,0.3,0.3,0.6,0.3v0.4h-3.3v-0.4
		c0.3-0.1,0.5-0.2,0.6-0.3s0.2-0.4,0.2-0.7v-14c0-0.3-0.1-0.6-0.2-0.7c-0.1-0.1-0.3-0.2-0.6-0.3V3.6h4.4V4c-0.4,0.1-0.6,0.3-0.6,0.5
		c0,0.1,0.1,0.4,0.4,0.9l5.6,11.1l5.6-11.2c0.2-0.4,0.3-0.7,0.3-0.8c0-0.2-0.2-0.4-0.6-0.5V3.6h4.4V4c-0.3,0.1-0.5,0.2-0.6,0.3
		c-0.1,0.1-0.2,0.4-0.2,0.7v14c0,0.3,0.1,0.6,0.2,0.7c0.1,0.1,0.3,0.3,0.6,0.3v0.4h-3.5V20c0.3-0.1,0.5-0.2,0.6-0.3
		c0.1-0.1,0.1-0.4,0.1-0.7V6.3L227.3,20.5z"/>
	<path class="st0" d="M254.7,14.2l-3.8-8.4l-3.8,8.4H254.7z M255.4,15.8h-9l-1.5,3.2c-0.1,0.3-0.2,0.5-0.2,0.6
		c0,0.2,0.2,0.4,0.7,0.5v0.4h-3.8v-0.4c0.3-0.1,0.6-0.2,0.8-0.4s0.4-0.6,0.7-1.2l6.2-13.4c0.1-0.3,0.2-0.5,0.2-0.7s-0.2-0.4-0.6-0.5
		V3.6h4.1V4c-0.4,0.1-0.6,0.3-0.6,0.5c0,0.1,0.1,0.3,0.2,0.6l5.9,12.9c0.4,1,0.7,1.5,0.9,1.7s0.4,0.3,0.9,0.4v0.4h-4v-0.4
		c0.5-0.1,0.7-0.2,0.7-0.5c0-0.1-0.1-0.4-0.3-0.8L255.4,15.8z"/>
	<path class="st0" d="M284,18.3v2h-11.5c0-0.5,0.1-1,0.2-1.5c0.3-0.8,0.8-1.5,1.4-2.3c0.6-0.8,1.6-1.6,2.8-2.6
		c1.9-1.6,3.2-2.8,3.8-3.7c0.7-0.9,1-1.8,1-2.6c0-0.8-0.3-1.6-0.9-2.1c-0.6-0.6-1.4-0.9-2.4-0.9s-1.9,0.3-2.5,0.9S275,7,275,8.1
		l-2.2-0.2c0.1-1.6,0.7-2.9,1.7-3.7s2.3-1.3,3.9-1.3c1.7,0,3,0.5,4,1.4s1.5,2.1,1.5,3.4c0,0.7-0.1,1.4-0.4,2.1
		c-0.3,0.7-0.8,1.4-1.4,2.1s-1.8,1.8-3.3,3.1c-1.3,1.1-2.1,1.8-2.5,2.2c-0.4,0.4-0.7,0.8-0.9,1.2L284,18.3L284,18.3z"/>
	<path class="st0" d="M290.9,11.8c0,2.8,0.3,4.7,1,5.7s1.5,1.4,2.5,1.4s1.8-0.5,2.5-1.4c0.7-0.9,1-2.8,1-5.7s-0.3-4.8-1-5.7
		s-1.5-1.4-2.5-1.4s-1.8,0.4-2.3,1.2C291.3,7,290.9,9,290.9,11.8 M288.7,11.8c0-2.1,0.2-3.7,0.6-5c0.4-1.2,1-2.2,1.9-2.9
		c0.8-0.7,1.9-1,3.1-1c0.9,0,1.8,0.2,2.5,0.6s1.3,0.9,1.7,1.6c0.5,0.7,0.8,1.6,1.1,2.6c0.3,1,0.4,2.4,0.4,4.1c0,2-0.2,3.7-0.6,4.9
		c-0.4,1.2-1,2.2-1.9,2.9c-0.8,0.7-1.9,1-3.2,1c-1.7,0-3-0.6-3.9-1.8C289.3,17.4,288.7,15.1,288.7,11.8"/>
	<path class="st0" d="M315.8,18.3v2h-11.5c0-0.5,0.1-1,0.2-1.5c0.3-0.8,0.8-1.5,1.4-2.3c0.6-0.8,1.6-1.6,2.8-2.6
		c1.9-1.6,3.2-2.8,3.8-3.7c0.7-0.9,1-1.8,1-2.6c0-0.8-0.3-1.6-0.9-2.1c-0.6-0.6-1.4-0.9-2.4-0.9s-1.9,0.3-2.5,0.9
		c-0.4,0.8-0.7,1.6-0.7,2.7L304.8,8c0.1-1.6,0.7-2.9,1.7-3.7s2.3-1.3,3.9-1.3c1.7,0,3,0.5,4,1.4s1.5,2.1,1.5,3.4
		c0,0.7-0.1,1.4-0.4,2.1c-0.3,0.7-0.8,1.4-1.4,2.1s-1.8,1.8-3.3,3.1c-1.3,1.1-2.1,1.8-2.5,2.2c-0.4,0.4-0.7,0.8-0.9,1.2L315.8,18.3
		L315.8,18.3z"/>
	<path class="st0" d="M349.4,8.4c0.1-0.3,0.6-0.7,1.1-0.7c0.9,0,2.3,0.6,2.3,1.2c0,0.2-0.1,0.3-0.3,0.4c-0.1,0.1-0.3,0.5-0.4,1.1
		c-1,3.9-2.8,7.5-7.4,10.3l-0.4-0.4c5.6-4.1,6.5-10.4,6.5-11c0-0.7-0.5-0.8-1-0.8C349.7,8.4,349.6,8.4,349.4,8.4L349.4,8.4z
		 M353.9,9.6c2-1.9,3.4-4.6,3.4-4.7s-0.1-0.2-0.2-0.2c-2.6,0.2-7.9,0.5-9,0.7c-1,0.1-1.6,0.2-2,0.3c-0.5,0.2-0.6,0.4-1,0.4
		c-0.8,0-1.9-1.3-1.9-1.9c0-0.5,0.1-0.8,0.6-1.1h0.1c0,0.8,0.7,1.4,1.9,1.4c2.1,0,9.1-0.4,10.8-0.6c0.4,0,0.6-0.1,0.8-0.2
		c0.3-0.2,0.5-0.4,0.7-0.4c0.4,0,1.9,1.3,1.9,1.8c0,0.3-0.3,0.4-0.8,0.5c-0.3,0.1-0.6,0.2-1,0.7c-0.9,1.1-2.2,2.6-3.9,3.8L353.9,9.6
		z"/>
	<path class="st0" d="M369.2,4.5c0.2-0.2,0.5-0.3,0.8-0.4c0.7,0,1.4,0.5,1.7,0.9c0.3,0,0.5,0,0.8,0c1.7,0,7.4-0.3,9.7-0.4
		c0.3,0,0.5-0.2,0.7-0.4c0.3-0.2,0.5-0.4,0.6-0.4c0.5,0,1.8,1.3,1.8,1.6s-0.4,0.4-0.6,0.5s-0.3,0.1-0.4,0.4
		c-1.2,6.2-3.2,11.2-11,14.3l-0.3-0.4c6.7-3.1,9.1-8.1,9.9-14.3c0-0.1,0-0.2,0-0.2c0-0.2-0.1-0.2-0.4-0.2c-2.6,0.1-6.7,0.4-8.6,0.6
		c-0.4,0-0.9,0.1-1.3,0.1c-0.2,0-0.5,0-0.7-0.1c-0.1,0.1-0.1,0.3-0.1,0.5c0,0.7,0.5,4.1,0.5,4.9c0,0.5-0.2,0.8-0.6,0.8
		c-0.6,0-1.1-1.2-1.1-1.7c0-0.4,0.2-0.6,0.2-1c0-0.6-0.2-2.9-0.4-3.8C370.2,5.2,369.9,4.7,369.2,4.5L369.2,4.5z"/>
	<path class="st0" d="M407.5,10.9c1.5,0,2.3-0.2,2.6-0.2c0.9,0,2.2,0.3,2.2,0.8c0,0.4-0.4,0.5-1.2,0.5c-0.4,0-0.8,0-1.2,0
		c-0.9,0-2.6,0-3.8,0c-4.8,0-8.7,0-9.6,0.4c-0.3,0.1-0.6,0.3-0.9,0.3c-0.7,0-2.1-1.2-2.1-2.1c0-0.5,0.1-0.8,0.4-1h0.1
		c0.2,1,0.8,1.3,3.2,1.3C397.3,10.9,407.5,10.9,407.5,10.9z"/>
	<path class="st0" d="M434.2,2.8c1.7,0.7,2.9,1.8,2.9,2.8c0,0.5-0.3,0.7-0.6,0.7c-0.3,0-0.5-0.1-0.6-0.6c-0.3-0.7-0.8-1.7-2-2.5
		L434.2,2.8z M432,4.2c1.7,0.7,2.9,1.8,2.9,2.8c0,0.5-0.3,0.8-0.6,0.8c-0.3,0-0.5-0.1-0.6-0.6c-0.3-0.8-0.8-1.7-2-2.5L432,4.2z
		 M424.5,3.3c0.1-0.3,0.5-0.7,1-0.7c1,0,2.6,0.6,2.6,1.4c0,0.2-0.2,0.3-0.3,0.6c-0.1,0.1-0.1,0.3-0.1,0.6c0,0.9-0.1,2.6-0.1,4.4
		c2.6,0.3,4.9,1,6.1,1.7s1.8,1.2,1.8,1.9c0,0.4-0.3,0.7-0.6,0.7c-0.5,0-1.1-0.6-1.6-1c-0.9-0.8-3.1-1.9-5.7-2.7c0,1.6,0,3.2,0,4.5
		c0,0.7,0.1,4.2,0.1,5c0,0.9-0.4,1.2-0.7,1.2c-0.8,0-1-2-1.2-2.6c0.4-0.6,0.5-0.9,0.6-3.3c0-1,0-3.2,0-5.3c0-1.8,0-3.6-0.1-4.5
		C426.1,4.4,426,3.3,424.5,3.3L424.5,3.3z"/>
</g>
<g>
	<path class="st2" d="M389.2,17.7"/>
</g>
<path class="st0" d="M332.1,18.4v2h-11.5c0-0.5,0.1-1,0.2-1.5c0.3-0.8,0.8-1.5,1.4-2.3c0.6-0.8,1.6-1.6,2.8-2.6
	c1.9-1.6,3.2-2.8,3.8-3.7c0.7-0.9,1-1.8,1-2.6c0-0.8-0.3-1.6-0.9-2.1c-0.6-0.6-1.4-0.9-2.4-0.9S324.6,5,324,5.6s-0.9,1.5-0.9,2.6
	L321,8c0.1-1.6,0.7-2.9,1.7-3.7S325,3,326.6,3c1.7,0,3,0.5,4,1.4s1.5,2.1,1.5,3.4c0,0.7-0.1,1.4-0.4,2.1c-0.3,0.7-0.8,1.4-1.4,2.1
	s-1.8,1.8-3.3,3.1c-1.3,1.1-2.1,1.8-2.5,2.2c-0.4,0.4-0.7,0.8-0.9,1.2L332.1,18.4L332.1,18.4z"/>
</svg>
