<?xml version="1.0" encoding="utf-8"?>
<!-- Generator: Adobe Illustrator 27.0.1, SVG Export Plug-In . SVG Version: 6.00 Build 0)  -->
<svg version="1.1" id="Layer_1" xmlns="http://www.w3.org/2000/svg" xmlns:xlink="http://www.w3.org/1999/xlink" x="0px" y="0px"
	 viewBox="0 0 280 140" style="enable-background:new 0 0 280 140;" xml:space="preserve">
<style type="text/css">
	.st0{fill:#231916;}
</style>
<g>
	<g>
		<g>
			<path class="st0" d="M22.1,61.3c-5.9,0-10.4,1.9-13.3,5.6c-1.9,2.4-2.8,5.3-2.8,8.5c0,4.1,1.5,7.6,4.5,10.3
				c2.9,2.6,6.6,3.8,11.2,3.8c2.4,0,4.6-0.3,6.6-1c1-0.3,1.9-0.7,2.7-1.2c0.8-0.5,1.8-1.2,3.1-2.1c0.5-0.4,0.7-0.5,0.8-0.5
				c0.3,0,0.6,0.2,0.9,0.5l0.3-0.2l-3.4-4.2l-0.3,0.2c0.2,0.4,0.3,0.7,0.3,0.9c0,0.3-0.2,0.8-1.8,2c-2.6,2-5.7,3-9.2,3
				c-3.5,0-6.5-1.1-9-3.3C10.2,81.5,9,78.7,9,75.3c0-3.4,1.2-6.2,3.6-8.4c2.4-2.1,5.5-3.2,9.3-3.2c2.8,0,5.4,0.6,7.8,1.7
				c1.8,0.9,2.7,1.6,2.7,2.2c0,0.2-0.1,0.5-0.2,0.9l0.3,0.2l2.8-4.8L35,63.9c-0.6,0.6-0.8,0.7-1,0.7c-0.1,0-0.2,0-0.6-0.2
				C29.8,62.4,26,61.3,22.1,61.3z"/>
		</g>
		<g>
			<path class="st0" d="M67.1,89.1h5.5v-0.4c-0.5-0.1-0.8-0.3-1-0.6c-0.2-0.3-0.3-0.7-0.3-1.3V64c0-0.6,0.1-1,0.3-1.3
				c0.2-0.2,0.5-0.4,1-0.6v-0.4h-5.5v0.4c0.5,0.1,0.8,0.3,1,0.6c0.2,0.3,0.3,0.7,0.3,1.3v9.8H49.2V64c0-0.6,0.1-1,0.3-1.3
				c0.2-0.2,0.5-0.4,1-0.6v-0.4h-5.5v0.4c0.5,0.1,0.8,0.3,1,0.6c0.2,0.3,0.3,0.7,0.3,1.3v22.8c0,0.6-0.1,1-0.3,1.3
				c-0.2,0.2-0.5,0.4-1,0.6v0.4h5.5v-0.4c-0.5-0.1-0.8-0.3-1-0.6c-0.2-0.3-0.3-0.7-0.3-1.3V76.2h19.1v10.6c0,0.6-0.1,1-0.3,1.3
				c-0.2,0.2-0.5,0.4-1,0.6V89.1z"/>
		</g>
		<g>
			<path class="st0" d="M104.7,89.1h6.3v-0.4c-0.7-0.2-1.2-0.4-1.5-0.7c-0.2-0.3-0.7-1.2-1.4-2.8l-9.7-21c-0.3-0.7-0.4-1-0.4-1.1
				c0-0.4,0.3-0.7,1-0.9v-0.4h-6.4v0.4c0.7,0.2,1,0.5,1,0.9c0,0.2-0.1,0.6-0.4,1.1L83.1,86c-0.5,1.1-0.9,1.7-1.2,2.1
				c-0.3,0.3-0.7,0.5-1.2,0.6v0.4h5.9v-0.4c-0.8-0.2-1.2-0.5-1.2-0.9c0-0.2,0.1-0.6,0.4-1.1l2.5-5.3h14.9l2.3,5
				c0.3,0.6,0.5,1.1,0.5,1.3c0,0.5-0.4,0.9-1.2,1V89.1z M102.1,79H89.3l0.1-0.2l6.3-13.9l0.1,0.3L102.1,79z"/>
		</g>
		<g>
			<path class="st0" d="M137.6,89.1h6.1v-0.4c-0.8,0-1.4-0.4-1.8-1.1l-7.1-11.1l0.2,0c2.4-0.2,4.3-0.9,5.7-2.2c1.4-1.3,2-3,2-5
				c0-1.4-0.3-2.6-0.9-3.7c-0.6-1-1.3-1.7-2.2-2.3c-0.9-0.5-1.9-0.9-3.1-1.1c-1.2-0.2-2.8-0.3-4.9-0.3H118v0.4
				c0.5,0.1,0.8,0.3,1,0.6c0.2,0.3,0.3,0.7,0.3,1.3v22.8c0,0.6-0.1,1-0.3,1.3c-0.2,0.2-0.5,0.4-1,0.6v0.4h5.5v-0.4
				c-0.5-0.1-0.8-0.3-1-0.6c-0.2-0.3-0.3-0.7-0.3-1.3V76.7h9.4l0,0.1l6.3,9.9c0.6,1,0.7,1.3,0.7,1.4c0,0.5-0.7,0.6-1,0.7V89.1z
				 M132.1,74.3h-10V64.1h9.7c1.6,0,2.9,0.1,3.6,0.2c0.8,0.1,1.5,0.4,2.2,0.7c1.5,0.8,2.2,2.2,2.2,4.2c0,1.9-0.7,3.3-2.1,4.2
				c-0.6,0.3-1.3,0.6-2.1,0.7C134.8,74.3,133.7,74.3,132.1,74.3z"/>
		</g>
		<g>
			<path class="st0" d="M153.6,89.1h5.5v-0.4c-0.5-0.1-0.8-0.3-1-0.6c-0.2-0.3-0.3-0.7-0.3-1.3V64c0-0.6,0.1-1,0.3-1.3
				c0.2-0.2,0.5-0.4,1-0.6v-0.4h-5.5v0.4c0.5,0.1,0.8,0.3,1,0.6c0.2,0.3,0.3,0.7,0.3,1.3v22.8c0,0.6-0.1,1-0.3,1.3
				c-0.2,0.2-0.5,0.4-1,0.6V89.1z"/>
		</g>
		<g>
			<path class="st0" d="M169.5,85.8c0.1,0,0.3,0.1,1.3,0.5c2.4,1.3,4.5,2.1,6.2,2.6c1.7,0.5,3.8,0.7,6.1,0.7c4,0,7.2-0.9,9.4-2.6
				c2-1.6,3.1-3.6,3.1-6c0-2.5-1.1-4.5-3.4-5.7c-0.8-0.5-1.9-0.8-3.2-1c-1.3-0.2-3.6-0.3-6.6-0.4c-2.2-0.1-3.8-0.2-4.8-0.3
				c-1-0.1-1.9-0.4-2.6-0.7c-0.7-0.3-1.2-0.8-1.7-1.4c-0.4-0.6-0.6-1.3-0.6-2c0-0.8,0.3-1.6,0.8-2.4c0.5-0.7,1.3-1.3,2.2-1.8
				c1.9-0.9,4.1-1.4,6.6-1.4c3,0,5.9,0.6,8.7,1.9c1.1,0.5,1.6,1,1.6,1.4c0,0.1,0,0.3-0.3,1.1l0.3,0.2l2.8-5l-0.3-0.2
				c-0.4,0.5-0.7,0.8-1,0.8c-0.1,0-0.3,0-0.9-0.3c-2-0.9-3.8-1.5-5.3-1.9c-1.6-0.4-3.3-0.5-5.1-0.5c-2.2,0-4.3,0.3-6.2,0.9
				c-1.9,0.6-3.4,1.4-4.4,2.4c-1.4,1.4-2.1,3-2.1,4.9c0,1.1,0.3,2.2,0.8,3.1c0.5,0.9,1.3,1.7,2.2,2.2c1,0.6,2.2,1,3.5,1.2
				c1.3,0.3,3.1,0.4,5.4,0.5c3.3,0.1,5.2,0.2,5.9,0.3c0.7,0.1,1.4,0.2,2,0.4c2.1,0.7,3.1,2,3.1,3.9c0,1.4-0.6,2.6-1.8,3.7
				c-1.8,1.5-4.4,2.3-7.8,2.3c-1.7,0-3.3-0.2-4.7-0.5c-1.4-0.4-3-0.9-4.5-1.8c-2.4-1.2-2.7-1.8-2.7-2.1c0-0.2,0.1-0.5,0.3-1
				l-0.3-0.2l-2.9,4.8l0.3,0.2C169,86,169.3,85.8,169.5,85.8z"/>
		</g>
		<g>
			<path class="st0" d="M231.1,89.1h5.5v-0.4c-0.5-0.1-0.8-0.3-1-0.6c-0.2-0.3-0.3-0.7-0.3-1.3V64c0-0.6,0.1-1,0.3-1.3
				c0.2-0.2,0.5-0.4,1-0.6v-0.4h-6.9v0.4c0.7,0.2,1,0.6,1,1c0,0.3-0.2,0.8-0.5,1.4l-9.3,18.6l-9.3-18.4c-0.6-1.2-0.7-1.5-0.7-1.6
				c0-0.4,0.3-0.7,1-0.9v-0.4h-6.9v0.4c0.5,0.1,0.8,0.3,1,0.6c0.2,0.3,0.3,0.7,0.3,1.3v22.8c0,0.6-0.1,1-0.3,1.3
				c-0.2,0.2-0.5,0.4-1,0.6v0.4h5.2v-0.4c-0.5-0.1-0.8-0.3-1-0.6c-0.2-0.3-0.3-0.7-0.3-1.3V65.5l11.7,23.4l11.8-23.4v21.4
				c0,0.6-0.1,1-0.3,1.3c-0.2,0.2-0.5,0.4-1,0.6V89.1z"/>
		</g>
		<g>
			<path class="st0" d="M267.8,89.1h6.3v-0.4c-0.7-0.2-1.2-0.4-1.5-0.7c-0.2-0.3-0.7-1.2-1.4-2.8l-9.7-21c-0.3-0.7-0.4-1-0.4-1.1
				c0-0.4,0.3-0.7,1-0.9v-0.4h-6.4v0.4c0.7,0.2,1,0.5,1,0.9c0,0.2-0.1,0.6-0.4,1.1L246.2,86c-0.5,1.1-0.9,1.7-1.2,2.1
				c-0.3,0.3-0.7,0.5-1.2,0.6v0.4h5.9v-0.4c-0.8-0.2-1.2-0.5-1.2-0.9c0-0.2,0.1-0.6,0.4-1.1l2.5-5.3h14.9l2.3,5
				c0.3,0.6,0.5,1.1,0.5,1.3c0,0.5-0.4,0.9-1.2,1V89.1z M265.2,79h-12.8l0.1-0.2l6.3-13.9l0.1,0.3L265.2,79z"/>
		</g>
	</g>
	<g>
		<path class="st0" d="M90.9,108.8c0,0.1-0.1,0.2-0.2,0.2c-0.5,5.8-1.2,9.5-2,11c-0.8,1.4-1.9,1.4-2.5,1.4c-0.7,0-2.3-0.2-3.8-0.5
			c0-0.1,0-0.3,0-0.4c0-0.2,0-0.4,0-0.6c1.6,0.4,3.2,0.5,3.7,0.5c0.8,0,1.2-0.2,1.7-1c0.7-1.3,1.4-4.9,1.8-9.8h-7.1
			c-1.2,5.2-3.5,9.2-7.3,11.9c-0.2-0.2-0.5-0.5-0.8-0.7c3.7-2.7,5.8-6.2,7-11.3h-5.9l0-1h6.1c0.3-1.5,0.5-2.8,0.7-4.6l1.6,0.1
			c0,0.2-0.2,0.3-0.5,0.4c-0.2,1.6-0.4,2.8-0.7,4.1h7.2l0.3-0.1L90.9,108.8z"/>
		<path class="st0" d="M98.2,117.3c4.6,0.5,9.9,1.7,13,3l-0.5,1c-2.8-1.2-8.3-2.5-12.9-3L98.2,117.3z M100.1,111
			c3.3,0.3,7.4,1,9.9,1.8l-0.4,1c-2.4-0.8-6.5-1.5-9.8-1.8L100.1,111z M100.5,104.5c3.5,0.4,7.8,1.2,10.7,2.2l-0.4,1
			c-2.8-1-7.1-1.8-10.6-2.2L100.5,104.5z"/>
		<path class="st0" d="M138.2,108.8c0,0.1-0.1,0.2-0.2,0.2c-0.5,5.8-1.2,9.5-2,11c-0.8,1.4-1.9,1.4-2.5,1.4c-0.7,0-2.3-0.2-3.8-0.5
			c0-0.1,0-0.3,0-0.4c0-0.2,0-0.4,0-0.6c1.6,0.4,3.2,0.5,3.7,0.5c0.8,0,1.2-0.2,1.7-1c0.7-1.3,1.4-4.9,1.8-9.8h-7.1
			c-1.2,5.2-3.5,9.2-7.3,11.9c-0.2-0.2-0.5-0.5-0.8-0.7c3.7-2.7,5.8-6.2,7-11.3h-5.9l0-1h6.1c0.3-1.5,0.5-2.8,0.7-4.6l1.6,0.1
			c0,0.2-0.2,0.3-0.5,0.4c-0.2,1.6-0.4,2.8-0.7,4.1h7.2l0.2-0.1L138.2,108.8z"/>
		<path class="st0" d="M147,115.2l0.3-9.9l1.5,0.1c0,0.1-0.2,0.3-0.5,0.3l-0.3,9.5H147z M158.5,104.5c0,0.2-0.2,0.3-0.5,0.3
			l-0.2,6.6c-0.1,4.3-1.8,8.2-7.8,10.4c-0.1-0.2-0.5-0.6-0.7-0.8c5.9-2.1,7.3-5.7,7.4-9.6l0.2-7L158.5,104.5z"/>
		<path class="st0" d="M179.3,106c-0.1,0.1-0.1,0.2-0.3,0.2c-1.2,2.6-2.7,5-4.5,7.2c2.3,1.8,5.6,5,7.5,7.2l-0.9,0.8
			c-1.8-2.2-5.1-5.3-7.3-7.1c-1.8,2.2-5.2,5.4-8.4,7.1c-0.2-0.2-0.5-0.6-0.7-0.8c6-3.2,10.8-9.4,12.8-13.9h-10.4l0-1h10.9l0.2-0.1
			L179.3,106z"/>
		<path class="st0" d="M204.8,107.2c-0.1,0.1-0.2,0.1-0.3,0.2c-2.1,3-5.5,6.1-8.8,8.4c1.7,1.4,3.2,3,4.3,4.2l-0.9,0.8
			c-2-2.5-6.1-6-9.6-8.1l0.7-0.8c1.5,0.9,3.2,2,4.7,3.3c3.1-2.1,6.2-4.9,8.1-7.6h-15.7l0-1h16.4l0.2-0.1L204.8,107.2z"/>
	</g>
	<g>
		<path class="st0" d="M107.6,44.4c-0.2-0.1-0.5-0.3-0.8-0.7L94.6,28.3l11-8.5c0.7-0.6,1.5-0.9,2.3-0.9l0.2,0v-0.6h-7.7v0.6l0.2,0
			c0.4,0.1,0.6,0.2,0.6,0.3c0,0.1-0.1,0.3-0.7,0.8L86,31.3v-11c0-0.6,0.1-0.9,0.2-1.1c0.1-0.2,0.5-0.3,0.9-0.5l0.2,0v-0.6h-6.2v0.6
			l0.2,0c0.5,0.1,0.8,0.3,0.9,0.5c0.1,0.1,0.2,0.4,0.2,1.1v22.8c0,0.6-0.1,0.9-0.2,1.1c-0.1,0.2-0.5,0.3-0.9,0.5l-0.2,0v0.6h6.2
			v-0.6l-0.2,0c-0.5-0.1-0.8-0.3-0.9-0.5C86.1,44,86,43.7,86,43.1V35l5.9-4.6l9.8,12.6c0.8,1,0.8,1.2,0.8,1.3c0,0.1-0.2,0.3-0.7,0.4
			l-0.2,0v0.6h7.2v-0.6l-0.2,0C108.2,44.6,107.8,44.5,107.6,44.4z"/>
		<path class="st0" d="M144.8,44.6c-0.9-0.2-1.2-0.5-1.4-0.6c-0.1-0.2-0.5-0.8-1.4-2.7l-9.7-21c-0.3-0.7-0.3-0.9-0.3-0.9
			c0-0.3,0.5-0.5,0.8-0.6l0.1,0v-0.6h-7.1v0.6l0.2,0c0.4,0.1,0.8,0.3,0.8,0.6c0,0.1,0,0.3-0.3,1l-10.1,21.8c-0.5,1-0.8,1.7-1.1,2
			c-0.3,0.3-0.6,0.5-1.1,0.5l-0.2,0v0.6h6.6v-0.6l-0.2,0c-0.5-0.1-1-0.2-1-0.6c0-0.1,0.1-0.4,0.3-1l2.4-5.1h14.5l2.2,4.8
			c0.4,0.8,0.4,1.1,0.4,1.2c0,0.1,0,0.5-1,0.7l-0.2,0v0.6h7v-0.6L144.8,44.6z M123.5,34.9l5.9-12.9l5.9,12.9H123.5z"/>
		<path class="st0" d="M182.8,44.6c-0.5-0.1-0.8-0.3-0.9-0.5c-0.1-0.1-0.2-0.4-0.2-1.1V20.3c0-0.6,0.1-0.9,0.2-1.1
			c0.1-0.2,0.4-0.3,0.9-0.5l0.2,0v-0.6h-7.6v0.6l0.1,0c0.4,0.1,0.8,0.4,0.8,0.7c0,0.2-0.1,0.5-0.5,1.3l-9,17.9l-9-17.8
			c-0.6-1.2-0.6-1.4-0.6-1.5c0-0.3,0.5-0.5,0.8-0.6l0.1,0v-0.6h-7.6v0.6l0.2,0c0.5,0.1,0.8,0.3,0.9,0.5c0.1,0.1,0.2,0.4,0.2,1.1
			v22.8c0,0.6-0.1,0.9-0.2,1.1c-0.1,0.2-0.5,0.3-0.9,0.5l-0.2,0v0.6h5.9v-0.6l-0.2,0c-0.5-0.1-0.8-0.3-0.9-0.5
			c-0.1-0.2-0.2-0.6-0.2-1.1V23.2l11,22h0.7l11.1-22v19.9c0,0.6-0.1,0.9-0.2,1.1c-0.1,0.1-0.3,0.3-0.9,0.5l-0.2,0v0.6h6.2v-0.6
			L182.8,44.6z"/>
		<path class="st0" d="M198.8,44.6c-0.6-0.1-0.8-0.3-0.9-0.5c-0.1-0.1-0.2-0.4-0.2-1.1V20.3c0-0.6,0.1-0.9,0.2-1.1
			c0.1-0.2,0.5-0.3,0.9-0.5l0.2,0v-0.6h-6.2v0.6l0.2,0c0.5,0.1,0.8,0.3,0.9,0.5c0.1,0.1,0.2,0.4,0.2,1.1v22.8c0,0.6-0.1,0.9-0.2,1.1
			c-0.1,0.1-0.3,0.3-0.9,0.5l-0.2,0v0.6h6.2v-0.6L198.8,44.6z"/>
	</g>
</g>
</svg>
