<?xml version="1.0" encoding="utf-8"?>
<!-- Generator: Adobe Illustrator 27.0.1, SVG Export Plug-In . SVG Version: 6.00 Build 0)  -->
<svg version="1.1" id="Layer_1" xmlns="http://www.w3.org/2000/svg" xmlns:xlink="http://www.w3.org/1999/xlink" x="0px" y="0px"
	 viewBox="0 0 1200 60" style="enable-background:new 0 0 1200 60;" xml:space="preserve">
<style type="text/css">
	.st0{fill:#231916;stroke:#231916;stroke-width:0.5846;stroke-miterlimit:10;}
	.st1{fill:#231916;}
</style>
<g>
	<path class="st0" d="M15.1,37v13.6c0,0.9,0.1,1.6,0.4,2c0.3,0.4,0.9,0.7,1.7,0.9v1.1H7.7v-1.1c0.8-0.2,1.4-0.5,1.7-0.9
		c0.3-0.4,0.4-1,0.4-2V12.9c0-0.9-0.1-1.6-0.4-2c-0.3-0.4-0.9-0.7-1.7-0.9V8.9h9.5V10c-0.8,0.2-1.4,0.5-1.7,0.9
		c-0.3,0.4-0.4,1-0.4,2v18.9l24.6-19.2c0.9-0.7,1.3-1.2,1.3-1.6c0-0.5-0.4-0.8-1.3-0.9V8.9h12V10c-1.3,0.1-2.6,0.6-3.9,1.6L29.3,26
		l20.4,25.8c0.5,0.6,0.9,1,1.4,1.3c0.4,0.2,1.1,0.3,1.9,0.4v1.1H41.8v-1.1c1-0.2,1.4-0.5,1.4-1c0-0.3-0.5-1-1.5-2.3L25.3,29.1
		L15.1,37z"/>
	<path class="st0" d="M99.2,41.7H74.8l-4,8.6c-0.4,0.8-0.6,1.4-0.6,1.7c0,0.7,0.7,1.1,2,1.3v1.1H62.1v-1.1c0.9-0.2,1.6-0.5,2.1-1
		c0.5-0.5,1.1-1.6,1.9-3.3l16.7-36c0.4-0.9,0.6-1.5,0.6-1.8c0-0.6-0.5-1-1.6-1.3V8.9h11.1V10c-1.1,0.4-1.6,0.8-1.6,1.4
		c0,0.2,0.2,0.8,0.6,1.7l16,34.7c1.2,2.6,2,4.1,2.3,4.5c0.4,0.4,1.2,0.8,2.5,1.1v1.1h-10.8v-1.1c1.3-0.2,1.9-0.7,1.9-1.5
		c0-0.4-0.2-1-0.7-2.1L99.2,41.7z M97.3,37.4L87,14.8L76.8,37.4H97.3z"/>
	<path class="st0" d="M151.5,54.5l-19.2-38.3v34.4c0,0.9,0.1,1.6,0.4,2c0.3,0.4,0.9,0.7,1.7,0.9v1.1h-9v-1.1
		c0.8-0.2,1.4-0.5,1.7-0.9c0.3-0.4,0.4-1,0.4-2V12.9c0-0.9-0.1-1.6-0.4-2c-0.3-0.4-0.9-0.7-1.7-0.9V8.9h11.8V10
		c-1.1,0.4-1.6,0.8-1.6,1.4c0,0.3,0.4,1.1,1.1,2.6l15.2,30l15.2-30.3c0.5-1.1,0.8-1.8,0.8-2.3c0-0.6-0.5-1.1-1.6-1.4V8.9h11.9V10
		c-0.8,0.2-1.4,0.5-1.7,0.9c-0.3,0.4-0.4,1-0.4,2v37.7c0,0.9,0.1,1.6,0.4,2c0.3,0.4,0.9,0.7,1.7,0.9v1.1h-9.5v-1.1
		c0.9-0.2,1.4-0.5,1.7-0.9c0.3-0.4,0.4-1,0.4-2V16.2L151.5,54.5z"/>
	<path class="st0" d="M198.6,50.5V12.9c0-0.9-0.1-1.6-0.4-2c-0.3-0.4-0.9-0.7-1.7-0.9V8.9h9.5V10c-0.8,0.2-1.4,0.5-1.7,0.9
		c-0.3,0.4-0.4,1-0.4,2v37.7c0,0.9,0.1,1.6,0.4,2c0.3,0.4,0.9,0.7,1.7,0.9v1.1h-9.5v-1.1c0.9-0.2,1.4-0.5,1.7-0.9
		C198.4,52.1,198.6,51.5,198.6,50.5z"/>
	<path class="st1" d="M297.5,12.9l-4.9,8.2l-0.9-0.5c0.2-0.7,0.3-1.2,0.3-1.6c0-0.9-1.4-2.1-4.3-3.4c-3.9-1.9-8.2-2.9-12.8-2.9
		c-6.2,0-11.3,1.7-15.2,5.2c-3.9,3.5-5.9,8.1-5.9,13.6c0,5.6,2,10.2,6.1,13.8c4,3.6,8.8,5.4,14.7,5.4c5.7,0,10.7-1.7,15-5
		c2-1.5,2.9-2.5,2.9-3.2c0-0.3-0.2-0.8-0.6-1.5l0.8-0.6l5.9,7.2l-0.8,0.7c-0.6-0.6-1.1-0.8-1.5-0.8c-0.2,0-0.7,0.2-1.3,0.7
		c-2,1.5-3.7,2.7-5.1,3.5c-1.3,0.8-2.8,1.4-4.4,2c-3.3,1.1-7,1.7-10.9,1.7c-7.7,0-13.9-2.1-18.7-6.4c-5.1-4.5-7.6-10.2-7.6-17.1
		c0-5.5,1.6-10.2,4.7-14.2c4.9-6.3,12.3-9.4,22.2-9.4c6.5,0,12.8,1.7,18.9,5.2c0.4,0.2,0.7,0.3,0.8,0.3c0.3,0,0.8-0.4,1.6-1.3
		L297.5,12.9z"/>
	<path class="st1" d="M353,33.2h-31.2v17.3c0,0.9,0.1,1.6,0.4,2c0.3,0.4,0.9,0.7,1.7,0.9v1.1h-9.5v-1.1c0.9-0.2,1.4-0.5,1.7-0.9
		c0.3-0.4,0.4-1,0.4-2V12.9c0-0.9-0.1-1.6-0.4-2c-0.3-0.4-0.9-0.7-1.7-0.9V8.9h9.5V10c-0.8,0.2-1.4,0.5-1.7,0.9
		c-0.3,0.4-0.4,1-0.4,2v16H353v-16c0-0.9-0.1-1.6-0.4-2c-0.3-0.4-0.9-0.7-1.7-0.9V8.9h9.5V10c-0.8,0.2-1.4,0.5-1.7,0.9
		c-0.3,0.4-0.4,1-0.4,2v37.7c0,0.9,0.1,1.6,0.4,2c0.3,0.4,0.9,0.7,1.7,0.9v1.1h-9.5v-1.1c0.8-0.2,1.4-0.5,1.7-0.9
		c0.3-0.4,0.4-1,0.4-2V33.2z"/>
	<path class="st1" d="M410.9,41.7h-24.4l-4,8.6c-0.4,0.8-0.6,1.4-0.6,1.7c0,0.7,0.7,1.1,2,1.3v1.1h-10.2v-1.1c0.9-0.2,1.6-0.5,2.1-1
		c0.5-0.5,1.1-1.6,1.9-3.3l16.7-36c0.4-0.9,0.6-1.5,0.6-1.8c0-0.6-0.5-1-1.6-1.3V8.9h11.1V10c-1.1,0.4-1.6,0.8-1.6,1.4
		c0,0.2,0.2,0.8,0.6,1.7l16,34.7c1.2,2.6,2,4.1,2.3,4.5c0.4,0.4,1.2,0.8,2.5,1.1v1.1h-10.8v-1.1c1.3-0.2,1.9-0.7,1.9-1.5
		c0-0.4-0.2-1-0.7-2.1L410.9,41.7z M409,37.4l-10.3-22.5l-10.2,22.5H409z"/>
	<path class="st1" d="M444.5,34v16.6c0,0.9,0.1,1.6,0.4,1.9c0.3,0.4,0.9,0.7,1.7,0.9v1.1h-9.5v-1.1c0.8-0.2,1.4-0.5,1.7-0.9
		c0.3-0.4,0.4-1,0.4-2V12.9c0-0.9-0.1-1.6-0.4-2c-0.3-0.4-0.9-0.7-1.7-0.9V8.9h25c3.4,0,6.1,0.2,8.1,0.6c2,0.4,3.7,1,5.2,1.9
		c1.5,0.9,2.7,2.2,3.7,3.8c1.1,1.8,1.6,3.9,1.6,6.3c0,3.5-1.2,6.3-3.5,8.5c-2.3,2.2-5.5,3.4-9.5,3.8l11.6,18c0.7,1.1,1.7,1.7,3,1.7
		v1.1h-10.5v-1.1c1.1-0.2,1.6-0.5,1.6-0.9c0-0.2-0.4-0.9-1.2-2.2L462,34H444.5z M444.5,29.7H463c2.5,0,4.4-0.1,5.7-0.3
		c1.3-0.2,2.4-0.6,3.4-1.2c2.3-1.3,3.4-3.6,3.4-6.7c0-3.2-1.2-5.4-3.5-6.7c-1-0.6-2.2-1-3.5-1.2c-1.3-0.2-3.3-0.3-6-0.3h-18V29.7z"
		/>
	<path class="st1" d="M500.1,50.5V12.9c0-0.9-0.1-1.6-0.4-2c-0.3-0.4-0.9-0.7-1.7-0.9V8.9h9.5V10c-0.8,0.2-1.4,0.5-1.7,0.9
		c-0.3,0.4-0.4,1-0.4,2v37.7c0,0.9,0.1,1.6,0.4,2c0.3,0.4,0.9,0.7,1.7,0.9v1.1h-9.5v-1.1c0.9-0.2,1.4-0.5,1.7-0.9
		C499.9,52.1,500.1,51.5,500.1,50.5z"/>
	<path class="st1" d="M568.4,11.8l-4.8,8.6l-0.9-0.5c0.4-1,0.6-1.6,0.6-1.9c0-0.7-0.8-1.4-2.5-2.2c-4.5-2.1-9.2-3.1-14.2-3.1
		c-4.1,0-7.7,0.8-10.7,2.3c-1.5,0.8-2.6,1.7-3.5,2.9c-0.9,1.2-1.3,2.5-1.3,3.8c0,1.1,0.3,2.2,1,3.1c0.7,1,1.5,1.7,2.6,2.2
		c1.2,0.6,2.6,0.9,4.3,1.1c1.6,0.2,4.3,0.4,8,0.5c5.1,0.2,8.8,0.4,11,0.7c2.2,0.3,4,0.9,5.4,1.7c3.8,2.1,5.7,5.3,5.7,9.6
		c0,4.1-1.7,7.5-5.1,10.1c-3.8,2.9-9,4.4-15.7,4.4c-3.9,0-7.2-0.4-10.1-1.2c-2.9-0.8-6.3-2.2-10.3-4.3c-1.1-0.5-1.8-0.8-2-0.8
		c-0.3,0-0.9,0.4-1.6,1.2l-0.9-0.6l5-8.4l0.9,0.5c-0.4,0.9-0.6,1.5-0.6,1.8c0,0.7,1.4,1.8,4.3,3.3c2.6,1.3,5,2.3,7.4,2.9
		c2.4,0.6,4.9,0.9,7.7,0.9c5.6,0,9.9-1.2,12.8-3.7c1.9-1.6,2.9-3.6,2.9-5.9c0-3-1.7-5-5-6.2c-1.1-0.4-2.2-0.6-3.3-0.7
		c-1.1-0.1-4.4-0.2-9.8-0.5c-3.8-0.2-6.8-0.4-9-0.9c-2.2-0.4-4.1-1.1-5.8-2.1c-1.6-0.9-2.8-2.1-3.8-3.7c-0.9-1.6-1.4-3.3-1.4-5.2
		c0-3.2,1.2-6,3.6-8.3c1.8-1.7,4.2-3,7.4-4c3.1-1,6.6-1.5,10.3-1.5c3,0,5.9,0.3,8.5,0.9c2.6,0.6,5.6,1.6,8.9,3.1
		c0.7,0.3,1.2,0.5,1.4,0.5c0.4,0,0.9-0.4,1.6-1.3L568.4,11.8z"/>
	<path class="st1" d="M611.1,54.5l-19.2-38.3v34.4c0,0.9,0.1,1.6,0.4,2c0.3,0.4,0.9,0.7,1.7,0.9v1.1h-9v-1.1
		c0.8-0.2,1.4-0.5,1.7-0.9c0.3-0.4,0.4-1,0.4-2V12.9c0-0.9-0.1-1.6-0.4-2c-0.3-0.4-0.9-0.7-1.7-0.9V8.9h11.8V10
		c-1.1,0.4-1.6,0.8-1.6,1.4c0,0.3,0.4,1.1,1.1,2.6l15.2,30l15.2-30.3c0.5-1.1,0.8-1.8,0.8-2.3c0-0.6-0.5-1.1-1.6-1.4V8.9h11.9V10
		c-0.8,0.2-1.4,0.5-1.7,0.9c-0.3,0.4-0.4,1-0.4,2v37.7c0,0.9,0.1,1.6,0.4,2c0.3,0.4,0.9,0.7,1.7,0.9v1.1h-9.5v-1.1
		c0.9-0.2,1.4-0.5,1.7-0.9c0.3-0.4,0.4-1,0.4-2V16.2L611.1,54.5z"/>
	<path class="st1" d="M688.3,41.7h-24.4l-4,8.6c-0.4,0.8-0.6,1.4-0.6,1.7c0,0.7,0.7,1.1,2,1.3v1.1h-10.2v-1.1c0.9-0.2,1.6-0.5,2.1-1
		c0.5-0.5,1.1-1.6,1.9-3.3l16.7-36c0.4-0.9,0.6-1.5,0.6-1.8c0-0.6-0.5-1-1.6-1.3V8.9h11.1V10c-1.1,0.4-1.6,0.8-1.6,1.4
		c0,0.2,0.2,0.8,0.6,1.7l16,34.7c1.2,2.6,2,4.1,2.3,4.5c0.4,0.4,1.2,0.8,2.5,1.1v1.1h-10.8v-1.1c1.3-0.2,1.9-0.7,1.9-1.5
		c0-0.4-0.2-1-0.7-2.1L688.3,41.7z M686.4,37.4l-10.3-22.5l-10.2,22.5H686.4z"/>
	<path class="st1" d="M767.5,48.6v5.5h-30.9c0-1.4,0.2-2.7,0.7-4c0.8-2.1,2.1-4.2,3.8-6.2c1.7-2,4.2-4.4,7.5-7.1
		c5.1-4.2,8.5-7.5,10.3-9.9c1.8-2.4,2.7-4.7,2.7-6.9c0-2.3-0.8-4.2-2.4-5.8c-1.6-1.6-3.8-2.3-6.4-2.3c-2.8,0-5,0.8-6.6,2.5
		c-1.7,1.7-2.5,4-2.5,6.9l-5.9-0.6c0.4-4.4,1.9-7.8,4.6-10.1c2.6-2.3,6.2-3.5,10.6-3.5c4.5,0,8,1.2,10.7,3.7
		c2.6,2.5,3.9,5.6,3.9,9.3c0,1.9-0.4,3.7-1.1,5.5c-0.8,1.8-2,3.7-3.8,5.7c-1.8,2-4.7,4.7-8.9,8.2c-3.4,2.9-5.7,4.9-6.6,5.9
		c-1,1-1.8,2.1-2.4,3.1H767.5z"/>
	<path class="st1" d="M781.5,31c0-5.5,0.6-10,1.7-13.4c1.1-3.4,2.8-6,5.1-7.8c2.2-1.8,5.1-2.7,8.5-2.7c2.5,0,4.7,0.5,6.6,1.5
		c1.9,1,3.5,2.5,4.7,4.4c1.2,1.9,2.2,4.2,2.9,7c0.7,2.7,1.1,6.4,1.1,11.1c0,5.5-0.6,9.9-1.7,13.3c-1.1,3.4-2.8,6-5.1,7.8
		c-2.2,1.8-5.1,2.8-8.5,2.8c-4.5,0-8.1-1.6-10.6-4.9C783,46.2,781.5,39.8,781.5,31z M787.4,31c0,7.7,0.9,12.8,2.7,15.3
		c1.8,2.5,4,3.8,6.7,3.8c2.6,0,4.9-1.3,6.7-3.8c1.8-2.6,2.7-7.7,2.7-15.3c0-7.7-0.9-12.8-2.7-15.4c-1.8-2.5-4-3.8-6.7-3.8
		c-2.6,0-4.7,1.1-6.3,3.4C788.4,18.1,787.4,23.3,787.4,31z"/>
	<path class="st1" d="M855.9,48.6v5.5h-30.9c0-1.4,0.2-2.7,0.7-4c0.8-2.1,2.1-4.2,3.8-6.2c1.7-2,4.2-4.4,7.5-7.1
		c5.1-4.2,8.5-7.5,10.3-9.9c1.8-2.4,2.7-4.7,2.7-6.9c0-2.3-0.8-4.2-2.4-5.8c-1.6-1.6-3.8-2.3-6.4-2.3c-2.8,0-5,0.8-6.6,2.5
		c-1.7,1.7-2.5,4-2.5,6.9l-5.9-0.6c0.4-4.4,1.9-7.8,4.6-10.1c2.6-2.3,6.2-3.5,10.6-3.5c4.5,0,8,1.2,10.7,3.7
		c2.6,2.5,3.9,5.6,3.9,9.3c0,1.9-0.4,3.7-1.1,5.5c-0.8,1.8-2,3.7-3.8,5.7c-1.8,2-4.7,4.7-8.9,8.2c-3.4,2.9-5.7,4.9-6.6,5.9
		c-1,1-1.8,2.1-2.4,3.1H855.9z"/>
	<path class="st1" d="M869.9,41.8l5.7-0.8c0.7,3.3,1.8,5.6,3.4,7c1.6,1.4,3.5,2.2,5.8,2.2c2.7,0,5-0.9,6.8-2.8
		c1.9-1.9,2.8-4.2,2.8-7c0-2.6-0.9-4.8-2.6-6.5c-1.7-1.7-3.9-2.6-6.6-2.6c-1.1,0-2.4,0.2-4.1,0.6l0.6-5c0.4,0,0.7,0.1,0.9,0.1
		c2.4,0,4.6-0.6,6.6-1.9c2-1.3,2.9-3.2,2.9-5.9c0-2.1-0.7-3.9-2.1-5.2c-1.4-1.4-3.3-2.1-5.5-2.1c-2.2,0-4.1,0.7-5.6,2.1
		c-1.5,1.4-2.4,3.5-2.9,6.3l-5.7-1c0.7-3.9,2.3-6.8,4.8-9c2.5-2.1,5.6-3.2,9.3-3.2c2.6,0,4.9,0.5,7.1,1.6c2.1,1.1,3.8,2.6,4.9,4.5
		c1.1,1.9,1.7,3.9,1.7,6c0,2-0.5,3.9-1.6,5.5c-1.1,1.7-2.7,3-4.8,4c2.8,0.6,4.9,2,6.4,4c1.5,2,2.3,4.5,2.3,7.6
		c0,4.1-1.5,7.6-4.5,10.4c-3,2.8-6.7,4.3-11.3,4.3c-4.1,0-7.5-1.2-10.2-3.7C871.8,48.8,870.3,45.7,869.9,41.8z"/>
	<path class="st1" d="M961.1,25.1c5.4-5.2,9.2-12.5,9.2-12.7c0-0.2-0.2-0.4-0.5-0.4c-7.1,0.4-21.2,1.4-24.3,1.9
		c-2.6,0.3-4.5,0.6-5.3,0.9c-1.2,0.5-1.7,1-2.8,1c-2.1,0-5-3.4-5-5.2c0-1.4,0.4-2.2,1.5-3l0.2,0.1c0.1,2.3,2,3.8,5.2,3.8
		c5.8,0,24.7-1.2,29.1-1.6c1.2-0.1,1.6-0.2,2.2-0.6c0.8-0.6,1.4-1.2,1.9-1.2c1,0,5,3.6,5,5c0,0.7-0.9,1-2.1,1.3
		c-0.9,0.2-1.7,0.6-2.7,1.8c-2.4,2.9-6,6.9-10.5,10.1L961.1,25.1z M949.1,21.7c0.2-0.9,1.5-1.8,3-1.8c2.4,0,6.1,1.6,6.1,3.1
		c0,0.5-0.4,0.7-0.7,1c-0.3,0.3-0.7,1.3-1.1,3c-2.7,10.5-7.6,20.3-20,27.9l-1-1.2c15.1-10.9,17.4-28,17.4-29.7
		c0-1.8-1.3-2.2-2.7-2.2c-0.3,0-0.6,0-1,0.1L949.1,21.7z"/>
	<path class="st1" d="M1003.5,11.2c0.5-0.6,1.4-0.9,2.3-1c1.8,0,3.7,1.3,4.5,2.5c0.7,0.1,1.4,0.1,2.2,0.1c4.6,0,20-0.8,26.1-1.2
		c0.8-0.1,1.2-0.5,2-1.1c0.8-0.6,1.2-1.1,1.7-1.1c1.3,0,4.9,3.5,4.9,4.2c0,0.8-1,1-1.7,1.4c-0.6,0.3-0.8,0.3-1,1.1
		c-3.1,16.6-8.7,30.2-29.7,38.6l-0.9-1.3c18.1-8.3,24.6-21.8,26.6-38.5c0.1-0.3,0.1-0.5,0.1-0.6c0-0.4-0.2-0.5-1-0.5
		c-7,0.2-18.1,1.2-23.3,1.6c-1.1,0.1-2.4,0.3-3.6,0.3c-0.6,0-1.3-0.1-1.8-0.2c-0.2,0.3-0.2,0.9-0.2,1.4c0,1.9,1.3,11.2,1.3,13.3
		c0,1.4-0.5,2.2-1.5,2.2c-1.6,0-2.9-3.2-2.9-4.7c0-1,0.5-1.7,0.5-2.8c0-1.6-0.5-7.9-1.2-10.1c-0.5-1.7-1.3-3-3.1-3.4L1003.5,11.2z"
		/>
	<path class="st1" d="M1107.9,28.6c4.1,0,6.3-0.5,7.1-0.5c2.4,0,6,0.9,6,2.3c0,1-1,1.4-3.1,1.4c-1,0-2.1,0-3.2-0.1
		c-2.5-0.1-7-0.1-10.2-0.1c-13,0-23.4,0.1-26,1c-0.8,0.3-1.5,0.9-2.5,0.9c-1.9,0-5.7-3.4-5.7-5.7c0-1.3,0.3-2.1,1.1-2.7l0.4-0.1
		c0.5,2.6,2.1,3.6,8.7,3.6H1107.9z"/>
	<path class="st1" d="M1154.8,7.9c0.3-0.9,1.4-1.7,2.6-1.7c2.5,0,7.1,1.7,7.1,3.8c0,0.5-0.5,0.9-0.9,1.5c-0.2,0.2-0.3,0.8-0.3,1.7
		c-0.1,2.4-0.2,7.1-0.3,11.8c6.9,0.9,13.1,2.6,16.5,4.5c3.4,1.9,4.9,3.2,4.9,5.2c0,1.1-0.8,1.9-1.6,1.9c-1.4,0-3-1.5-4.5-2.8
		c-2.5-2.3-8.3-5.3-15.3-7.2c-0.1,4.2-0.1,8.6-0.1,12.2c0,1.9,0.2,11.4,0.2,13.5c0,2.4-1,3.3-2,3.3c-2.1,0-2.8-5.4-3.2-6.9
		c1-1.5,1.3-2.5,1.5-8.8c0.1-2.6,0.1-8.5,0.1-14.2c0-4.9-0.1-9.7-0.2-12.2C1159.3,11,1158.9,8,1154.8,7.9L1154.8,7.9z M1175.2,10.5
		c4.5,1.9,7.8,4.9,7.8,7.4c0,1.4-0.9,2-1.6,2c-0.8,0-1.2-0.3-1.7-1.7c-0.7-2-2.2-4.6-5.4-6.7L1175.2,10.5z M1181.2,6.8
		c4.6,1.9,7.8,4.9,7.8,7.4c0,1.4-0.9,2-1.6,2c-0.8,0-1.2-0.3-1.7-1.7c-0.7-2-2.2-4.5-5.4-6.7L1181.2,6.8z"/>
</g>
</svg>
